<svg width="295" height="174" viewBox="0 0 295 174" fill="none" xmlns="http://www.w3.org/2000/svg">
<rect width="295" height="174" rx="20" fill="url(#paint0_linear)"/>
<g clip-path="url(#clip0)">
<path d="M30.12 41.9818C30.3901 41.2354 30.647 40.5246 30.9042 39.8141C30.9892 39.5789 31.0771 39.3443 31.1579 39.1074C31.1843 39.0307 31.2221 39.0007 31.3065 39.0013C31.8835 39.0052 32.4608 39.0077 33.0378 39C33.1799 38.9981 33.1741 39.072 33.1738 39.1685C33.1725 40.1056 33.1732 41.0427 33.1732 41.9798C33.1732 42.5178 33.1706 43.0554 33.1754 43.5933C33.1764 43.7039 33.1437 43.7406 33.0308 43.7384C32.7155 43.7317 32.3999 43.7285 32.0852 43.7397C31.9431 43.7448 31.9213 43.6911 31.922 43.5658C31.9268 42.5967 31.9245 41.6276 31.9245 40.6585C31.9245 40.5972 31.9245 40.5358 31.9245 40.4438C31.8421 40.5099 31.8338 40.5745 31.8135 40.6298C31.4498 41.6139 31.0858 42.598 30.7278 43.584C30.6874 43.6952 30.6406 43.7444 30.5142 43.7397C30.2368 43.7291 29.9584 43.7307 29.6809 43.739C29.5703 43.7422 29.5244 43.7032 29.4872 43.6016C29.1193 42.5906 28.746 41.5816 28.3739 40.5722C28.3559 40.523 28.3357 40.4748 28.2931 40.4255C28.2899 40.462 28.2841 40.4987 28.2841 40.5352C28.2835 41.5468 28.2812 42.5587 28.2867 43.5703C28.2873 43.7019 28.2536 43.7435 28.1186 43.7393C27.8036 43.7294 27.488 43.7329 27.1727 43.7381C27.0711 43.7397 27.0329 43.7125 27.0332 43.6048C27.0361 42.1138 27.0358 40.6231 27.0338 39.132C27.0338 39.0387 27.0569 39.0007 27.1589 39.0013C27.7469 39.0055 28.3348 39.0071 28.9224 39C29.0356 38.9988 29.0532 39.063 29.0808 39.1391C29.3993 40.0148 29.7185 40.8906 30.0376 41.7663C30.0591 41.8255 30.0825 41.8843 30.12 41.9818Z" fill="white"/>
<path d="M58.9726 41.8205C58.9726 41.4168 58.9726 41.0135 58.9726 40.6098C58.9726 40.1253 58.9758 39.6407 58.9703 39.1565C58.969 39.044 58.9896 38.9964 59.1172 39.0002C59.4428 39.0098 59.769 39.0076 60.0948 39.0012C60.2029 38.9989 60.2292 39.037 60.2289 39.1389C60.2263 40.6242 60.226 42.1095 60.2292 43.5947C60.2295 43.706 60.1984 43.7405 60.0855 43.7386C59.6743 43.7325 59.2628 43.7322 58.8513 43.7389C58.7368 43.7408 58.6688 43.7056 58.605 43.6088C58.0155 42.7145 57.4202 41.824 56.8265 40.9326C56.795 40.8856 56.763 40.8393 56.6978 40.8029C56.6978 41.172 56.6978 41.5415 56.6978 41.9107C56.6982 42.4697 56.695 43.0287 56.7014 43.5877C56.7027 43.7082 56.6671 43.7417 56.5481 43.7389C56.2276 43.7312 55.9069 43.7302 55.5865 43.7392C55.4627 43.7427 55.4373 43.7015 55.4377 43.5858C55.4415 42.1059 55.4418 40.6258 55.437 39.146C55.4367 39.0168 55.4838 38.9999 55.5948 39.0015C56.0275 39.0069 56.4605 39.0079 56.8932 39.0009C57.0038 38.9989 57.0654 39.0379 57.1244 39.1271C57.6934 39.9837 58.2666 40.8377 58.8388 41.6924C58.8706 41.74 58.9042 41.7863 58.9373 41.8333C58.9495 41.8285 58.961 41.8247 58.9726 41.8205Z" fill="white"/>
<path d="M45.4496 48.1223C45.9753 48.6937 46.4824 49.2448 47.0196 49.8287C46.739 49.8287 46.5016 49.8287 46.2643 49.8287C46.0346 49.8287 45.8047 49.8246 45.575 49.8306C45.4801 49.8332 45.4175 49.8009 45.3566 49.7299C44.9422 49.2496 44.5236 48.7727 44.1063 48.2945C44.0178 48.1932 43.6984 48.1213 43.5794 48.1763C43.512 48.2073 43.5415 48.2693 43.5412 48.3166C43.5386 48.7637 43.5329 49.2112 43.5434 49.658C43.547 49.8051 43.4989 49.8357 43.3625 49.8316C43.0421 49.822 42.7214 49.8249 42.401 49.8306C42.2957 49.8325 42.2643 49.799 42.2646 49.6948C42.2672 48.2044 42.2666 46.714 42.2637 45.2237C42.2634 45.1249 42.2964 45.0971 42.3926 45.0974C43.3221 45.1019 44.2523 45.0833 45.1812 45.1105C45.8214 45.1294 46.3413 45.3985 46.5998 46.0256C46.9539 46.8844 46.5016 47.8087 45.6087 48.0714C45.5635 48.0849 45.5186 48.1002 45.4496 48.1223ZM44.2799 47.1199C44.2799 47.1187 44.2799 47.1177 44.2799 47.1164C44.5089 47.1164 44.7385 47.1247 44.9672 47.1139C45.1516 47.1049 45.3107 47.0279 45.3932 46.8508C45.4682 46.6901 45.4551 46.5271 45.3518 46.3819C45.236 46.2193 45.0583 46.1748 44.8723 46.1723C44.4672 46.1668 44.0624 46.172 43.6573 46.1678C43.5665 46.1668 43.5367 46.1975 43.5386 46.2873C43.5434 46.5261 43.5438 46.7652 43.5386 47.0042C43.5367 47.0944 43.5656 47.1244 43.6563 47.1219C43.8642 47.1161 44.072 47.1199 44.2799 47.1199Z" fill="white"/>
<path d="M43.7323 43.7359C43.3183 43.7359 42.9497 43.7148 42.585 43.7423C42.2787 43.7657 42.0722 43.6743 41.8804 43.4297C41.5452 43.0024 41.1718 42.6048 40.8142 42.1951C40.7295 42.0979 40.4088 42.0295 40.3004 42.0848C40.2378 42.1164 40.2568 42.1768 40.2564 42.2267C40.2548 42.6738 40.2507 43.1213 40.2584 43.5685C40.2606 43.6995 40.2266 43.7433 40.0903 43.7391C39.7647 43.7292 39.4385 43.7327 39.1124 43.7379C39.0152 43.7395 38.985 43.7104 38.9853 43.6119C38.9879 42.1158 38.9879 40.6197 38.9844 39.1235C38.9841 39.0197 39.0232 39.0011 39.1159 39.0014C39.987 39.0046 40.8578 39.0002 41.729 39.0056C42.1832 39.0085 42.612 39.1076 42.9597 39.4227C43.3875 39.811 43.4976 40.308 43.393 40.8517C43.2811 41.4331 42.9058 41.7933 42.3493 41.9739C42.1652 42.0337 42.1636 42.0295 42.2912 42.1682C42.7598 42.6786 43.2288 43.1884 43.7323 43.7359ZM41.0262 40.0869C41.0262 40.0853 41.0262 40.0837 41.0262 40.0821C40.8078 40.0821 40.5891 40.0827 40.3706 40.0817C40.3071 40.0814 40.2542 40.0837 40.2552 40.1706C40.2577 40.4308 40.2564 40.6913 40.2561 40.9514C40.2561 41.0118 40.2853 41.0364 40.3447 41.0361C40.7921 41.0323 41.2405 41.0432 41.6873 41.0221C41.9846 41.008 42.1591 40.8127 42.1559 40.5586C42.1527 40.2956 41.9516 40.1028 41.6498 40.0891C41.4426 40.0792 41.2344 40.0869 41.0262 40.0869Z" fill="white"/>
<path d="M27.0355 47.4529C27.0355 46.7236 27.039 45.9939 27.0323 45.2645C27.031 45.1303 27.0708 45.0957 27.2029 45.0961C28.432 45.1009 29.6611 45.1009 30.8905 45.0961C31.0242 45.0954 31.0659 45.1322 31.0602 45.2655C31.0496 45.5045 31.0493 45.7449 31.0602 45.984C31.0666 46.1262 31.0291 46.1738 30.8773 46.1725C30.0864 46.1649 29.2954 46.1738 28.5045 46.1649C28.3409 46.1629 28.2877 46.2067 28.3047 46.3681C28.3191 46.5049 28.3146 46.6453 28.3053 46.783C28.2979 46.8955 28.3361 46.9265 28.4484 46.9259C29.2339 46.9214 30.0197 46.9275 30.8052 46.9198C30.9537 46.9182 30.9967 46.9598 30.9899 47.1052C30.9784 47.3497 30.9797 47.5952 30.9896 47.8397C30.9951 47.9694 30.9486 47.9995 30.8257 47.9988C30.0453 47.994 29.2653 47.9992 28.4849 47.9937C28.3509 47.9928 28.2886 48.0186 28.3047 48.1676C28.3188 48.2993 28.3165 48.4342 28.3053 48.5665C28.2931 48.7074 28.3329 48.755 28.4853 48.7535C29.2813 48.7451 30.0777 48.7535 30.8741 48.7461C31.021 48.7448 31.0679 48.7835 31.0605 48.9312C31.0483 49.1702 31.0473 49.4109 31.0608 49.6497C31.0698 49.8044 31.0101 49.8318 30.87 49.8312C29.6569 49.8264 28.4436 49.8242 27.2305 49.8331C27.058 49.8344 27.0307 49.7781 27.0323 49.6254C27.0397 48.9014 27.0355 48.1772 27.0355 47.4529Z" fill="white"/>
<path d="M34.1427 41.3654C34.1427 40.6306 34.1456 39.8958 34.1402 39.161C34.1392 39.0376 34.17 38.9996 34.2986 39.0002C35.5331 39.0053 36.7674 39.0053 38.0019 39.0002C38.1328 38.9996 38.1632 39.0411 38.1591 39.1626C38.1507 39.4125 38.1466 39.6634 38.1603 39.913C38.1687 40.0626 38.1126 40.0863 37.9785 40.085C37.1824 40.0792 36.386 40.0866 35.5899 40.0783C35.4369 40.0767 35.3949 40.1259 35.4068 40.2672C35.417 40.3886 35.4183 40.5129 35.4065 40.6341C35.3917 40.7843 35.4379 40.8332 35.5976 40.8316C36.3671 40.8227 37.1365 40.831 37.906 40.8246C38.0474 40.8233 38.1023 40.8533 38.0936 41.0061C38.0798 41.2503 38.0824 41.4961 38.093 41.7406C38.0984 41.8716 38.0625 41.911 37.9268 41.9097C37.1468 41.903 36.3664 41.9097 35.5864 41.9033C35.4491 41.902 35.3927 41.9327 35.4061 42.0781C35.419 42.2155 35.4183 42.3555 35.4061 42.493C35.393 42.6397 35.4536 42.6697 35.5896 42.6688C36.3751 42.663 37.1606 42.6653 37.9461 42.6662C38.1899 42.6665 38.1539 42.6451 38.1559 42.8823C38.1578 43.1271 38.1533 43.3722 38.1578 43.6171C38.1594 43.7053 38.134 43.7373 38.0414 43.7373C36.7802 43.7347 35.519 43.7337 34.2579 43.7382C34.1264 43.7385 34.1424 43.6657 34.1424 43.5854C34.143 42.8458 34.1427 42.1056 34.1427 41.3654Z" fill="white"/>
<path d="M47.3815 47.4538C47.3815 46.719 47.384 45.9845 47.3789 45.2497C47.3783 45.1324 47.4084 45.0959 47.5303 45.0963C48.7697 45.1007 50.0093 45.1007 51.249 45.0963C51.3696 45.0959 51.4049 45.1292 51.4007 45.2487C51.3917 45.5041 51.3901 45.7601 51.4014 46.0152C51.4071 46.1494 51.3539 46.1718 51.2355 46.1711C50.434 46.167 49.6328 46.1721 48.8312 46.166C48.6898 46.1651 48.6272 46.1954 48.643 46.3485C48.6568 46.4802 48.6574 46.6157 48.643 46.7471C48.6256 46.9037 48.694 46.9273 48.8319 46.9261C49.6013 46.9203 50.3705 46.9277 51.14 46.9197C51.2933 46.9181 51.3436 46.9548 51.3346 47.1118C51.3205 47.356 51.3244 47.6014 51.3337 47.8462C51.3385 47.9677 51.2981 47.9997 51.18 47.999C50.4 47.9945 49.6199 48.0006 48.8399 47.9933C48.6882 47.992 48.6272 48.0275 48.6433 48.186C48.6571 48.3231 48.6542 48.4631 48.6439 48.6009C48.6349 48.7214 48.676 48.7533 48.796 48.7524C49.592 48.7472 50.3881 48.7488 51.1842 48.7501C51.4261 48.7504 51.3965 48.7217 51.3981 48.9617C51.3998 49.2065 51.3937 49.4517 51.4007 49.6962C51.4039 49.8036 51.3658 49.8304 51.2631 49.8304C50.0183 49.8276 48.7735 49.8266 47.5287 49.8314C47.402 49.8317 47.3792 49.786 47.3799 49.6735C47.3834 48.9336 47.3815 48.1937 47.3815 47.4538Z" fill="white"/>
<path d="M26.0697 43.7367C25.8722 43.7367 25.6743 43.7331 25.4767 43.7383C25.3946 43.7405 25.3529 43.7114 25.3221 43.6353C25.2227 43.3883 25.1126 43.1457 25.0132 42.8986C24.9795 42.8146 24.9385 42.7749 24.8397 42.7759C24.1876 42.7807 23.5359 42.7804 22.8838 42.7762C22.7934 42.7756 22.751 42.8066 22.7193 42.8871C22.623 43.1297 22.5156 43.3678 22.421 43.6111C22.3851 43.7037 22.3382 43.7411 22.2346 43.7395C21.8606 43.7331 21.4863 43.7338 21.1123 43.7389C20.9917 43.7405 20.9783 43.7076 21.0248 43.6027C21.691 42.1031 22.3552 40.6028 23.0176 39.1016C23.0506 39.0265 23.0933 39.0015 23.1738 39.0022C23.644 39.0057 24.1142 39.006 24.5847 39.0018C24.6713 39.0012 24.7165 39.0258 24.7528 39.1083C25.4122 40.6047 26.0742 42.1002 26.7391 43.5944C26.7888 43.7063 26.7754 43.7434 26.6471 43.7386C26.4546 43.7312 26.2619 43.7367 26.0697 43.7367ZM23.863 40.1589C23.6453 40.6773 23.4397 41.1673 23.2334 41.6569C23.2029 41.7291 23.2424 41.7394 23.2998 41.7394C23.6738 41.7394 24.0478 41.7387 24.4218 41.74C24.492 41.7403 24.5218 41.7218 24.4901 41.6464C24.2842 41.1615 24.0805 40.676 23.863 40.1589Z" fill="white"/>
<path d="M54.4742 43.7359C54.2821 43.7359 54.0897 43.7311 53.8975 43.7378C53.8036 43.741 53.7535 43.7113 53.7182 43.6221C53.6204 43.3747 53.5101 43.1321 53.4107 42.8854C53.3779 42.8042 53.3317 42.7748 53.2432 42.7754C52.5918 42.7789 51.94 42.7796 51.2886 42.7751C51.1895 42.7745 51.1475 42.8141 51.1141 42.8985C51.0182 43.1411 50.913 43.3798 50.8171 43.6224C50.786 43.7017 50.7472 43.7394 50.6548 43.7381C50.2703 43.733 49.8857 43.7327 49.5014 43.7381C49.3847 43.7397 49.3808 43.7055 49.4229 43.6112C50.0887 42.1129 50.753 40.6138 51.4147 39.1136C51.4535 39.0257 51.5042 39.0007 51.5959 39.0017C52.0552 39.0058 52.5145 39.0071 52.9738 39.0011C53.078 38.9998 53.1229 39.0404 53.1621 39.1292C53.8196 40.6196 54.479 42.109 55.1414 43.5975C55.1901 43.7068 55.1812 43.7445 55.0513 43.7387C54.8591 43.7295 54.6667 43.7359 54.4742 43.7359ZM52.2656 40.1581C52.0443 40.6842 51.8435 41.1636 51.6408 41.6424C51.6106 41.7136 51.6321 41.7392 51.7059 41.7389C52.0789 41.7379 52.4523 41.7379 52.8253 41.7389C52.9016 41.7392 52.9177 41.7108 52.8882 41.6414C52.6864 41.1633 52.4863 40.6838 52.2656 40.1581Z" fill="white"/>
<path d="M60.8905 45.1183C60.7375 45.4507 60.5855 45.778 60.4366 46.1069C60.4004 46.1871 60.3327 46.1683 60.2721 46.1686C59.6524 46.1696 59.0324 46.1686 58.4128 46.1702C58.3278 46.1705 58.2412 46.1747 58.1584 46.1919C57.9846 46.2287 57.8739 46.3617 57.8672 46.5263C57.8601 46.6998 57.9512 46.8286 58.1212 46.8909C58.2033 46.921 58.2877 46.9242 58.3736 46.9245C58.7903 46.9261 59.2076 46.9191 59.6236 46.9344C60.0059 46.9485 60.367 47.0492 60.6378 47.3394C61.0515 47.783 61.0714 48.3107 60.8947 48.8486C60.7003 49.4396 60.2327 49.7109 59.6434 49.8011C59.4911 49.8244 59.3349 49.8276 59.1803 49.8279C58.4214 49.8305 57.6629 49.826 56.904 49.8321C56.7747 49.833 56.7398 49.7921 56.7436 49.6691C56.752 49.4246 56.7532 49.1791 56.7433 48.9346C56.7375 48.7936 56.7731 48.7447 56.9261 48.7463C57.7062 48.7546 58.4862 48.7492 59.2663 48.7508C59.4116 48.7511 59.5447 48.7233 59.6396 48.6057C59.7313 48.4922 59.7432 48.3605 59.6896 48.2285C59.6319 48.0866 59.5142 48.0106 59.3647 48.0071C58.975 47.9984 58.585 47.9984 58.195 47.9971C57.9207 47.9962 57.6513 47.9684 57.396 47.8597C56.8786 47.6401 56.6246 47.2342 56.5993 46.6896C56.5576 45.7943 57.1368 45.1484 58.0603 45.1139C58.9834 45.0794 59.9087 45.1027 60.8331 45.1011C60.8469 45.1011 60.8613 45.1094 60.8905 45.1183Z" fill="white"/>
<path d="M31.2393 49.8286C31.4208 49.6234 31.5715 49.4521 31.7229 49.2815C32.2368 48.7039 32.7487 48.1248 33.2676 47.5517C33.3507 47.46 33.3478 47.4082 33.2664 47.3184C32.6694 46.6577 32.078 45.9923 31.4849 45.3281C31.4288 45.2651 31.3736 45.2012 31.3188 45.1389C31.3595 45.0778 31.4125 45.1005 31.4558 45.1002C31.9045 45.0983 32.3532 45.1021 32.8019 45.0967C32.9046 45.0954 32.9687 45.1325 33.0322 45.2073C33.3783 45.6126 33.7317 46.0121 34.0762 46.419C34.1522 46.5084 34.1894 46.5059 34.2639 46.4177C34.608 46.0108 34.9615 45.6113 35.3069 45.2054C35.3714 45.1296 35.4362 45.0961 35.5378 45.0973C36.0129 45.1028 36.4879 45.0996 36.9648 45.0996C36.9783 45.1801 36.9164 45.2089 36.8811 45.2482C36.2791 45.9258 35.6783 46.6043 35.0686 47.2749C34.9689 47.3845 34.9817 47.4433 35.0731 47.545C35.703 48.2475 36.3269 48.9554 36.9523 49.6621C36.9908 49.7056 37.0274 49.7507 37.0649 49.7951C37.0258 49.8523 36.9732 49.8277 36.9308 49.8277C36.4821 49.8299 36.0334 49.8261 35.5847 49.8312C35.4843 49.8325 35.4173 49.8028 35.3521 49.7264C34.9859 49.2962 34.6122 48.872 34.2478 48.4402C34.1667 48.344 34.1256 48.3459 34.0458 48.4412C33.7061 48.8449 33.3523 49.2373 33.0168 49.6445C32.9046 49.7807 32.7904 49.8382 32.6124 49.8331C32.1717 49.82 31.729 49.8286 31.2393 49.8286Z" fill="white"/>
<path d="M54.7764 45.099C55.2146 45.099 55.6527 45.1012 56.0908 45.0974C56.1935 45.0964 56.2259 45.1137 56.1752 45.2192C56.0446 45.4896 55.9205 45.7635 55.7973 46.0374C55.7534 46.1352 55.6915 46.1732 55.578 46.1723C54.9583 46.1659 54.3383 46.1684 53.7186 46.17C53.5919 46.1704 53.4611 46.1675 53.3517 46.2471C53.2157 46.3461 53.1663 46.4976 53.2131 46.652C53.2609 46.8102 53.4149 46.9218 53.6019 46.9234C53.9653 46.9263 54.3287 46.9211 54.6917 46.9247C54.9987 46.9275 55.2986 46.9656 55.5866 47.0851C56.0219 47.266 56.264 47.6556 56.3044 48.0973C56.324 48.3108 56.3189 48.5295 56.2599 48.743C56.0966 49.3333 55.6203 49.7315 54.9766 49.8015C54.8229 49.8182 54.6677 49.8271 54.5134 49.8274C53.7654 49.83 53.0175 49.8245 52.2695 49.8319C52.1213 49.8335 52.061 49.8057 52.0713 49.643C52.0867 49.4043 52.0835 49.1636 52.0719 48.9248C52.0655 48.7871 52.1011 48.7446 52.2464 48.7462C53.037 48.7538 53.828 48.7506 54.6186 48.7494C54.846 48.749 54.9612 48.6608 55.0276 48.4901C55.1023 48.2977 54.9682 48.0334 54.7132 48.012C54.3184 47.9791 53.9232 48.0053 53.5284 47.997C53.2632 47.9912 53.0024 47.9749 52.7493 47.8762C52.3057 47.7029 52.045 47.375 51.9532 46.9256C51.7784 46.0671 52.248 45.3528 53.1002 45.1562C53.2914 45.1121 53.488 45.0964 53.6859 45.0984C54.0496 45.1012 54.413 45.099 54.7764 45.099Z" fill="white"/>
<path d="M37.2508 47.4491C37.2508 46.7201 37.2543 45.991 37.2476 45.2623C37.2463 45.1271 37.2867 45.0951 37.4179 45.0961C38.2775 45.1018 39.1374 45.1002 39.9973 45.0986C40.4717 45.098 40.9146 45.1977 41.263 45.5394C41.728 45.9952 41.815 46.5593 41.6565 47.1624C41.4987 47.762 41.068 48.0909 40.48 48.2341C40.2764 48.2836 40.0676 48.2846 39.8591 48.2846C39.4639 48.2846 39.0688 48.2891 38.6736 48.282C38.546 48.2798 38.51 48.3217 38.5123 48.446C38.5193 48.8557 38.5113 49.2655 38.5171 49.6749C38.5187 49.7887 38.4934 49.835 38.3676 49.8315C38.0421 49.8229 37.7162 49.8239 37.3906 49.8312C37.2745 49.8338 37.2486 49.7913 37.2492 49.6842C37.2524 48.9388 37.2508 48.1941 37.2508 47.4491ZM39.2795 47.211C39.2795 47.2103 39.2795 47.2097 39.2795 47.2094C39.4986 47.2094 39.7179 47.2187 39.9364 47.2075C40.3081 47.1883 40.5198 46.8994 40.431 46.5475C40.3729 46.317 40.1843 46.1786 39.8822 46.1722C39.4658 46.1633 39.0489 46.1713 38.6326 46.1678C38.5434 46.1671 38.5107 46.1968 38.5123 46.2876C38.5168 46.559 38.5168 46.8303 38.5126 47.1017C38.5113 47.1854 38.5395 47.2139 38.6229 47.2126C38.8414 47.2081 39.0604 47.211 39.2795 47.211Z" fill="white"/>
<path d="M49.0028 39.0031C49.2645 39.0031 49.5265 39.0066 49.7879 39.0011C49.8867 38.9992 49.9304 39.0197 49.9275 39.1309C49.9198 39.4182 49.921 39.7059 49.9271 39.9932C49.9291 40.0923 49.8976 40.1201 49.7998 40.1188C49.3832 40.114 48.9665 40.1153 48.5496 40.1176C48.2448 40.1192 47.9539 40.17 47.7079 40.3691C47.3875 40.6286 47.3057 40.9869 47.306 41.3698C47.306 41.6751 47.3496 41.9752 47.5434 42.2315C47.8096 42.5834 48.1913 42.6547 48.5973 42.6649C48.7789 42.6694 48.9607 42.6684 49.1423 42.6649C49.2427 42.663 49.2815 42.6822 49.2286 42.7902C49.09 43.0721 48.9595 43.3579 48.8257 43.6423C48.8026 43.6912 48.7818 43.7347 48.7128 43.7363C48.1647 43.7481 47.6226 43.7324 47.1226 43.4617C46.5234 43.1373 46.194 42.6211 46.0869 41.9682C45.982 41.3276 46.0064 40.6929 46.3265 40.1025C46.6847 39.4419 47.2711 39.1299 47.9943 39.0341C48.3292 38.9903 48.6663 39.0053 49.0028 39.0031Z" fill="white"/>
<path d="M45.3667 41.3641C45.3667 42.1037 45.3645 42.8433 45.3693 43.5829C45.3699 43.6976 45.3452 43.7417 45.2202 43.7385C44.8891 43.7299 44.5578 43.7318 44.2268 43.7379C44.12 43.7398 44.0908 43.7046 44.0911 43.6014C44.094 42.1113 44.094 40.6216 44.0908 39.1315C44.0905 39.0213 44.1325 38.9995 44.2316 39.0011C44.5626 39.0062 44.894 39.0072 45.225 39.0005C45.3379 38.9983 45.3696 39.0337 45.369 39.145C45.3645 39.8849 45.3667 40.6245 45.3667 41.3641Z" fill="white"/>
</g>
<defs>
<linearGradient id="paint0_linear" x1="7.05177e-07" y1="-9" x2="293.277" y2="182.637" gradientUnits="userSpaceOnUse">
<stop stop-color="#4CA5FB"/>
<stop offset="0.609375" stop-color="#1070CD"/>
</linearGradient>
<clipPath id="clip0">
<rect width="40" height="40" fill="white" transform="translate(21 24)"/>
</clipPath>
</defs>
</svg>
