<svg width="295" height="174" viewBox="0 0 295 174" fill="none" xmlns="http://www.w3.org/2000/svg">
<rect width="295" height="174" rx="20" fill="url(#paint0_linear)"/>
<g clip-path="url(#clip0)">
<path d="M60.9872 46.8042C60.9872 50.2178 60.9872 53.6314 60.9872 57.0436C47.8399 57.0436 34.694 57.0409 21.5467 57.0573C21.0907 57.0573 20.9974 56.9658 21.0001 56.4984C21.0241 52.9482 21.0134 49.3993 21.0134 45.849C21.1867 45.8313 21.3667 45.8354 21.5347 45.793C25.4998 44.7831 29.5089 44.0384 33.578 43.6202C41.0429 42.8536 48.4199 43.3059 55.6901 45.2519C57.4674 45.7274 59.2233 46.285 60.9872 46.8042ZM36.4019 51.7975C35.4953 50.4993 34.6286 49.2449 33.7447 48.0054C33.5207 47.6911 32.7141 47.6583 32.5074 47.9658C31.6581 49.2257 30.8355 50.5048 29.9796 51.8126C30.8715 51.9219 30.9368 51.952 31.1048 51.5598C31.4555 50.7426 32.0341 50.5157 32.8447 50.6346C33.214 50.6893 33.5994 50.6729 33.9727 50.636C34.4233 50.5909 34.742 50.7275 34.9273 51.1621C35.1953 51.7934 35.6472 52.0435 36.4019 51.7975ZM47.8572 49.7559C48.1599 49.7956 48.4919 49.9541 48.6865 49.7259C49.0825 49.2626 49.5811 49.2585 50.0864 49.2845C50.4864 49.305 51.1237 49.2503 51.0971 49.771C51.0731 50.2506 50.4358 50.2329 50.0264 50.1973C49.3825 50.1413 48.7932 50.3531 48.1812 50.4679C47.8292 50.5335 47.6959 50.7713 47.6666 51.0774C47.6332 51.4176 47.8559 51.6021 48.1399 51.7319C48.9518 52.1036 49.7638 52.0503 50.5838 51.7634C50.8744 51.6622 51.1357 51.4586 51.4504 51.8249C51.6424 52.049 52.2103 51.8481 52.1503 51.6595C51.9717 51.102 52.053 50.5335 52.0543 49.9705C52.0543 49.428 51.8223 49.1137 51.3237 48.9907C50.4224 48.7693 49.5198 48.7884 48.6292 49.0412C48.2932 49.1369 47.9719 49.3036 47.8572 49.7559ZM41.9056 50.3886C41.9056 50.0484 41.8829 49.7067 41.9109 49.3678C41.9416 48.9961 41.7869 48.9101 41.4523 48.9046C41.0883 48.8991 40.9896 49.0467 41.0163 49.3897C41.0389 49.6821 41.0229 49.9787 41.0203 50.2739C41.0123 51.2537 40.043 51.8877 39.1404 51.501C38.7977 51.3548 38.5578 51.1799 38.6457 50.7029C38.7217 50.2862 38.6377 49.842 38.6711 49.4143C38.7004 49.0221 38.5218 48.9798 38.2031 48.9757C37.8818 48.9729 37.7765 49.0768 37.7925 49.402C37.8165 49.8776 37.8071 50.3545 37.7978 50.83C37.7871 51.3671 38.0831 51.6773 38.5351 51.8303C39.2244 52.064 39.9123 52.0531 40.5856 51.7319C40.771 51.6445 40.9216 51.4655 41.1816 51.7825C41.4576 52.1187 41.8896 51.8631 41.9029 51.4081C41.9136 51.0692 41.9056 50.7289 41.9056 50.3886ZM43.9508 50.3217C43.9508 50.662 43.9628 51.0036 43.9468 51.3438C43.9321 51.6759 43.9548 51.8932 44.3881 51.8918C44.8161 51.8918 44.8521 51.6827 44.8361 51.3466C44.8201 51.0063 44.8201 50.6647 44.8374 50.3244C44.8694 49.6589 45.1534 49.387 45.8027 49.387C45.9573 49.387 46.1107 49.417 46.264 49.4348C46.4626 49.458 46.5466 49.3118 46.596 49.1642C46.6826 48.8991 46.4346 48.9306 46.3173 48.9032C45.9693 48.824 45.6174 48.8117 45.272 48.9552C45.0507 49.0467 44.8694 49.3706 44.5681 48.9552C44.4534 48.7966 43.8935 48.772 43.9455 49.3665C43.9734 49.6835 43.9508 50.0033 43.9508 50.3217Z" fill="#FDF112"/>
<path d="M21.0154 41.8888C21.0154 38.0885 21.0234 34.2882 21.0034 30.4892C21.0021 30.082 21.0848 30 21.4821 30C34.496 30.0137 47.5086 30.0137 60.5226 30C60.9199 30 61.0025 30.082 60.9999 30.4892C60.9812 34.5629 60.9892 38.6351 60.9892 42.7087C59.68 42.2961 58.3774 41.8601 57.0614 41.4775C54.1389 40.6262 51.1471 40.1356 48.1446 39.7024C47.9313 38.6816 47.4713 37.7838 46.8153 36.9966C45.4394 35.3459 43.6248 34.6271 41.5636 34.4303C37.9838 34.0887 34.856 36.1412 33.7761 39.5575C30.4802 39.9388 27.2071 40.4458 23.9726 41.2124C22.9887 41.442 22.034 41.8123 21.0154 41.8888Z" fill="#3C418F"/>
<path d="M21.0137 41.8889C22.0323 41.8124 22.9869 41.442 23.9708 41.2097C27.2053 40.4445 30.4798 39.9375 33.7743 39.5549C35.6955 39.4647 37.6154 39.3553 39.5366 39.287C42.4152 39.1859 45.279 39.4633 48.1428 39.6997C51.1453 40.1329 54.1372 40.6249 57.0597 41.4748C58.3769 41.8588 59.6782 42.2948 60.9875 42.7061C60.9875 44.0712 60.9875 45.4364 60.9875 46.8016C59.2222 46.2823 57.4677 45.7248 55.6904 45.2492C48.4202 43.306 41.0432 42.8537 33.5783 43.6203C29.5092 44.0385 25.5001 44.7832 21.535 45.7931C21.367 45.8354 21.1883 45.8313 21.0137 45.8491C21.0137 44.529 21.0137 43.209 21.0137 41.8889Z" fill="#EC3237"/>
<path d="M36.4023 51.7976C35.6477 52.0436 35.1957 51.7935 34.9277 51.1635C34.7424 50.7276 34.4237 50.5923 33.9731 50.6374C33.5998 50.6743 33.2145 50.6893 32.8452 50.636C32.0332 50.5171 31.4546 50.744 31.1053 51.5612C30.9373 51.952 30.8719 51.9233 29.98 51.814C30.8359 50.5048 31.6572 49.2258 32.5078 47.9672C32.7158 47.6597 33.5211 47.6925 33.7451 48.0068C34.6304 49.2449 35.4957 50.4994 36.4023 51.7976ZM32.0225 50.1441C32.8185 50.1441 33.5065 50.1441 34.2597 50.1441C33.8438 49.495 33.4771 48.921 33.1038 48.3389C32.7318 48.9607 32.3905 49.5291 32.0225 50.1441Z" fill="#3C418F"/>
<path d="M47.8565 49.756C47.9699 49.3023 48.2925 49.137 48.6285 49.0413C49.5178 48.7885 50.4204 48.7694 51.323 48.9908C51.8217 49.1138 52.0536 49.4281 52.0536 49.9706C52.0536 50.5322 51.971 51.1021 52.1496 51.6596C52.2096 51.8482 51.6417 52.0477 51.4497 51.825C51.135 51.4587 50.8737 51.6624 50.5831 51.7635C49.7644 52.0491 48.9512 52.1037 48.1392 51.732C47.8565 51.6022 47.6326 51.4177 47.6659 51.0775C47.6966 50.7727 47.8299 50.535 48.1805 50.468C48.7925 50.3532 49.3805 50.1428 50.0258 50.1974C50.4351 50.233 51.0724 50.2507 51.0964 49.7711C51.123 49.2504 50.4857 49.3051 50.0858 49.2846C49.5805 49.26 49.0818 49.2627 48.6858 49.726C48.4912 49.9542 48.1605 49.797 47.8565 49.756ZM49.6924 51.5489C50.1271 51.6596 50.5244 51.4314 50.9124 51.1718C51.127 51.0283 51.175 50.7987 51.107 50.5719C51.0204 50.2835 50.8057 50.5008 50.6617 50.509C50.2444 50.5295 49.8298 50.5924 49.4138 50.6347C49.0498 50.6716 48.5285 50.6648 48.5432 51.1034C48.5552 51.441 49.0271 51.6145 49.4365 51.5503C49.5005 51.5394 49.5685 51.5489 49.6924 51.5489Z" fill="#3C418F"/>
<path d="M41.9048 50.3885C41.9048 50.7287 41.9128 51.069 41.9035 51.4093C41.8915 51.8643 41.4582 52.1212 41.1822 51.7837C40.9222 51.4667 40.7716 51.6457 40.5862 51.7331C39.9116 52.0543 39.2236 52.0652 38.5357 51.8315C38.0824 51.6785 37.7877 51.3683 37.7984 50.8312C37.8077 50.3557 37.8157 49.8774 37.7931 49.4032C37.7771 49.078 37.8824 48.9741 38.2037 48.9768C38.5224 48.9796 38.701 49.0233 38.6717 49.4155C38.6397 49.8446 38.7223 50.2887 38.6463 50.7041C38.5584 51.1811 38.7983 51.356 39.141 51.5022C40.0436 51.8876 41.0142 51.2549 41.0209 50.2751C41.0235 49.9799 41.0395 49.6833 41.0169 49.3909C40.9902 49.0493 41.0889 48.9003 41.4529 48.9058C41.7875 48.9113 41.9422 48.996 41.9115 49.369C41.8835 49.7066 41.9048 50.0482 41.9048 50.3885Z" fill="#3C418F"/>
<path d="M43.9516 50.3215C43.9516 50.0031 43.9743 49.6833 43.9463 49.3677C43.8943 48.7746 44.4542 48.7978 44.5689 48.9564C44.8702 49.3718 45.0515 49.0479 45.2729 48.9564C45.6182 48.8129 45.9702 48.8252 46.3182 48.9044C46.4355 48.9318 46.6835 48.9003 46.5968 49.1654C46.5488 49.313 46.4635 49.4592 46.2648 49.436C46.1115 49.4182 45.9568 49.3882 45.8035 49.3882C45.1542 49.3868 44.8702 49.6588 44.8382 50.3256C44.8222 50.6659 44.8209 51.0075 44.8369 51.3478C44.8529 51.684 44.8169 51.893 44.3889 51.893C43.9556 51.893 43.9316 51.6758 43.9476 51.3451C43.9649 51.0034 43.9516 50.6618 43.9516 50.3215Z" fill="#3C418F"/>
<path d="M48.1439 39.7012C45.2801 39.4648 42.4162 39.186 39.5377 39.2885C37.6165 39.3568 35.6966 39.4648 33.7754 39.5563C34.8553 36.14 37.9832 34.0875 41.563 34.4291C43.6242 34.6259 45.4374 35.3447 46.8147 36.9954C47.4706 37.7826 47.9293 38.6817 48.1439 39.7012Z" fill="#FDF112"/>
<path d="M32.022 50.1439C32.39 49.5303 32.7313 48.9605 33.1019 48.3387C33.4752 48.9208 33.8432 49.4948 34.2578 50.1439C33.5059 50.1439 32.8179 50.1439 32.022 50.1439Z" fill="#FDF112"/>
<path d="M49.693 51.5487C49.569 51.5487 49.501 51.5405 49.437 51.5501C49.0264 51.6157 48.5544 51.4421 48.5438 51.1032C48.5291 50.6632 49.0504 50.6714 49.4144 50.6345C49.8303 50.5921 50.245 50.5293 50.6623 50.5088C50.8076 50.502 51.0223 50.2833 51.1076 50.5716C51.1756 50.7985 51.1276 51.0281 50.9129 51.1716C50.525 51.4312 50.1277 51.6594 49.693 51.5487Z" fill="#FDF112"/>
</g>
<defs>
<linearGradient id="paint0_linear" x1="7.05177e-07" y1="-9" x2="293.277" y2="182.637" gradientUnits="userSpaceOnUse">
<stop stop-color="#676DC4"/>
<stop offset="0.609375" stop-color="#3C418F"/>
</linearGradient>
<clipPath id="clip0">
<rect width="40" height="40" fill="white" transform="translate(21 24)"/>
</clipPath>
</defs>
</svg>
