<svg width="295" height="174" viewBox="0 0 295 174" fill="none" xmlns="http://www.w3.org/2000/svg">
<rect width="295" height="174" rx="20" fill="url(#paint0_linear)"/>
<path d="M42.7714 40.1588C44.1018 40.2065 45.2625 40.6711 46.1925 41.6773C46.6637 42.187 46.9786 42.8018 47.2296 43.4523C47.262 43.5363 47.3412 43.6327 47.2997 43.7077C47.2652 43.7698 47.1551 43.7885 47.0772 43.8236C44.3947 45.0314 41.712 46.2388 39.0294 47.4463C39.0248 47.4483 39.0205 47.4513 39.0159 47.4533C38.8862 47.5113 38.8859 47.5113 38.8133 47.3793C38.3418 46.5224 38.1264 45.6046 38.186 44.6177C38.3153 42.4747 39.8503 40.6569 41.8854 40.2456C42.1768 40.1865 42.472 40.1587 42.7714 40.1588ZM40.2915 44.9971C41.7173 44.3631 43.1194 43.7398 44.5345 43.1105C44.381 42.9171 44.2211 42.7624 44.0431 42.6272C43.6543 42.3318 43.2213 42.1782 42.7357 42.1936C42.21 42.2103 41.7253 42.3723 41.2943 42.6761C40.5146 43.2256 40.2309 44.0158 40.2915 44.9971Z" fill="white"/>
<path d="M21 43.6958C21.0373 41.6338 21.8438 39.7018 23.441 38.126C23.584 37.985 23.5849 37.9861 23.7193 38.143C24.3387 38.8663 24.9582 39.5895 25.5776 40.3127C25.5975 40.3361 25.6168 40.3601 25.6376 40.3827C25.6684 40.416 25.6648 40.4448 25.6324 40.4752C25.5877 40.5171 25.5441 40.5603 25.5016 40.6044C24.724 41.4111 24.269 42.3776 24.18 43.5148C24.0667 44.9612 24.5199 46.1987 25.5016 47.2328C25.5262 47.2587 25.5518 47.2838 25.5771 47.3088C25.682 47.412 25.6957 47.3909 25.5808 47.5252C25.2646 47.8948 24.9481 48.2641 24.6316 48.6335C24.3152 49.0029 23.9988 49.3723 23.6822 49.7414C23.584 49.8559 23.597 49.8588 23.4876 49.7541C22.3309 48.6469 21.5658 47.3026 21.2003 45.7173C21.0637 45.1239 21.0042 44.5209 21 43.6958Z" fill="#38A6E3"/>
<path d="M28.7992 36.0001C32.2579 36.0035 35.3674 38.5737 36.1508 42.1771C36.1531 42.1873 36.1557 42.1972 36.1576 42.2075C36.1812 42.3326 36.1815 42.3342 36.0603 42.3602C35.5935 42.4605 35.1264 42.5606 34.6591 42.6592C34.182 42.7598 33.7046 42.8588 33.2273 42.9585C33.0903 42.9871 33.0929 42.9865 33.0585 42.85C32.6435 41.2059 31.6653 40.0828 30.1171 39.5107C29.2206 39.1795 28.3052 39.1795 27.3903 39.4511C27.3806 39.4539 27.3708 39.4562 27.3612 39.459C27.24 39.4956 27.2391 39.4959 27.1976 39.3679C26.9076 38.4729 26.6178 37.5779 26.328 36.6829C26.3089 36.6239 26.2938 36.563 26.2692 36.5066C26.2355 36.4296 26.2628 36.3966 26.3345 36.3737C26.5937 36.2905 26.8552 36.2172 27.121 36.1616C27.6345 36.0546 28.1533 35.9977 28.7992 36.0001Z" fill="#FAC607"/>
<path d="M28.7162 51.8323C27.8933 51.8367 27.1466 51.7174 26.4159 51.4877C26.3823 51.4771 26.3492 51.4643 26.3154 51.4548C26.2595 51.4389 26.2455 51.4033 26.2642 51.3489C26.2759 51.3148 26.2854 51.2797 26.2966 51.2453C26.5927 50.3299 26.8888 49.4148 27.1851 48.4994C27.237 48.3393 27.2362 48.3441 27.388 48.3849C29.1358 48.8559 30.6618 48.4477 31.938 47.124C32.5064 46.5345 32.8675 45.8132 33.0557 45.0025C33.0582 44.9923 33.0589 44.9819 33.0615 44.9719C33.0897 44.8577 33.0903 44.8549 33.2007 44.8773C33.4668 44.9314 33.7323 44.9878 33.9979 45.0439C34.6719 45.1863 35.3457 45.3292 36.0197 45.4719C36.0443 45.477 36.0686 45.484 36.0933 45.4881C36.1564 45.4984 36.1769 45.5361 36.1627 45.5982C36.1398 45.6992 36.1197 45.8009 36.0945 45.9013C35.3661 48.8021 33.1168 51.03 30.274 51.6622C29.7419 51.7805 29.203 51.8415 28.7162 51.8323Z" fill="#EE3120"/>
<path d="M51.6676 47.9439C51.4801 48.3967 51.2967 48.8396 51.1131 49.2824C51.048 49.4396 50.9807 49.596 50.9175 49.7542C50.8932 49.8148 50.8742 49.8458 50.7983 49.8124C50.2996 49.5932 49.792 49.3941 49.2995 49.1612C48.743 48.898 48.4282 48.4303 48.3206 47.8109C48.2939 47.6569 48.2876 47.5017 48.2876 47.3456C48.2879 44.3187 48.2877 41.292 48.2877 38.265C48.2877 38.2339 48.2891 38.2027 48.2877 38.1716C48.2856 38.1237 48.3098 38.1077 48.3523 38.1092C48.3825 38.1103 48.4127 38.1091 48.4428 38.1091C49.0008 38.1091 49.5588 38.1089 50.1168 38.1091C50.3037 38.1092 50.2786 38.0977 50.2786 38.2745C50.2791 41.2236 50.2789 44.1724 50.2789 47.1214C50.2789 47.3562 50.2789 47.3561 50.4949 47.4466C50.8531 47.5968 51.211 47.7471 51.569 47.8976C51.5964 47.9096 51.6233 47.9233 51.6676 47.9439Z" fill="white"/>
<path d="M53.3242 48.6202C52.6325 47.9761 52.1451 47.2138 51.922 46.3003C51.4721 44.4588 51.9002 42.8524 53.2018 41.5026C53.3233 41.3767 53.326 41.3793 53.4358 41.5058C53.8389 41.9695 54.2419 42.4332 54.6448 42.897C54.6783 42.9355 54.7107 42.9749 54.7522 43.0243C54.1968 43.5542 53.8912 44.2059 53.888 44.9885C53.8849 45.7729 54.1813 46.4296 54.7485 46.9753C54.2754 47.5217 53.8051 48.0648 53.3242 48.6202Z" fill="white"/>
<path d="M56.4317 40.1715C58.5889 40.1671 60.4818 41.7123 60.9795 43.8844C60.9818 43.8945 60.9845 43.9045 60.9866 43.9146C61.0121 44.0408 61.0118 44.0419 60.8911 44.0674C60.6059 44.128 60.3208 44.1891 60.0354 44.2485C59.7106 44.3161 59.3856 44.3822 59.0608 44.4493C58.9172 44.4789 58.9175 44.4792 58.882 44.3406C58.7333 43.7579 58.4298 43.2783 57.9637 42.9175C57.3033 42.4061 56.5672 42.264 55.7672 42.4705C55.7478 42.4755 55.7262 42.4762 55.7089 42.4856C55.6399 42.5222 55.6126 42.4896 55.5919 42.4233C55.5182 42.1864 55.4408 41.9509 55.3648 41.7148C55.2381 41.3214 55.1112 40.928 54.9849 40.5345C54.9474 40.4172 54.948 40.4153 55.0655 40.3785C55.5109 40.2392 55.9659 40.1668 56.4317 40.1715Z" fill="white"/>
<path d="M56.4269 49.8348C55.9568 49.8349 55.4967 49.7656 55.0479 49.6201C54.9388 49.5847 54.9378 49.5827 54.9738 49.4716C55.1728 48.8576 55.3725 48.2437 55.5722 47.63C55.6172 47.492 55.6178 47.4921 55.7579 47.5309C57.0706 47.894 58.4128 47.1508 58.8373 45.8252C58.8594 45.7565 58.8785 45.6864 58.894 45.6158C58.9078 45.553 58.9322 45.5365 58.9983 45.551C59.3858 45.6365 59.7745 45.716 60.163 45.7972C60.399 45.8466 60.6351 45.895 60.871 45.9447C61.0106 45.9742 61.0143 45.9782 60.9815 46.1138C60.6685 47.401 59.9721 48.4054 58.8847 49.1123C58.1378 49.5976 57.2961 49.8363 56.4269 49.8348Z" fill="white"/>
<path d="M44.9783 46.4864C45.301 46.7085 45.61 46.9211 45.9188 47.134C46.1486 47.2925 46.3783 47.4511 46.6074 47.6103C46.7081 47.6803 46.7085 47.682 46.64 47.7851C46.1831 48.4747 45.5775 48.9817 44.8492 49.3374C44.1716 49.6683 43.4603 49.8523 42.7079 49.8279C41.8277 49.7993 41.0233 49.5195 40.2904 49.0172C40.274 49.006 40.2601 48.9907 40.2378 48.9713C40.6126 48.3925 40.9863 47.8155 41.3601 47.2386C41.3829 47.2479 41.3989 47.2504 41.4096 47.2596C41.9375 47.7021 42.5381 47.8233 43.1948 47.6862C43.696 47.5817 44.1489 47.3696 44.5378 47.0217C44.7057 46.8717 44.8487 46.6984 44.9783 46.4864Z" fill="white"/>
<defs>
<linearGradient id="paint0_linear" x1="7.05177e-07" y1="-9" x2="293.277" y2="182.637" gradientUnits="userSpaceOnUse">
<stop stop-color="#F7B148"/>
<stop offset="0.609375" stop-color="#E7852A"/>
</linearGradient>
</defs>
</svg>
