<svg width="295" height="174" viewBox="0 0 295 174" fill="none" xmlns="http://www.w3.org/2000/svg">
<rect width="295" height="174" rx="20" fill="url(#paint0_linear)"/>
<path d="M44.2399 36.0067C48.7527 36.0067 53.2654 36.0071 57.7783 36.0063C58.8061 36.0061 59.834 36.0022 60.8618 36C61.0137 35.9996 61.0153 36.0004 60.9836 36.1489C60.8549 36.7517 60.7243 37.3539 60.5963 37.9567C60.1808 39.9156 59.7666 41.8746 59.351 43.8333C58.9843 45.5625 58.6166 47.2914 58.2489 49.0202C58.1478 49.4954 58.0495 49.9713 57.9421 50.4453C57.824 50.9665 57.573 51.4185 57.1836 51.8012C56.692 52.2842 56.0773 52.5306 55.4121 52.682C54.8816 52.8027 54.3436 52.8405 53.7979 52.8383C51.8769 52.8305 49.9557 52.835 48.0347 52.8354C43.2927 52.8364 38.5507 52.8375 33.8086 52.8387C29.6194 52.8397 25.4301 52.8409 21.2406 52.842C21.2036 52.842 21.1664 52.842 21.1294 52.842C20.9878 52.8419 20.986 52.8415 21.0145 52.7055C21.1003 52.297 21.1879 51.8888 21.2742 51.4805C21.6447 49.7255 22.0143 47.9703 22.3854 46.2156C22.8975 43.7938 23.4106 41.3724 23.9243 38.951C23.967 38.7501 24.0147 38.5499 24.0665 38.3512C24.2771 37.5451 24.7865 36.9662 25.527 36.5655C26.0251 36.2959 26.568 36.1624 27.1264 36.0744C27.3966 36.0317 27.667 36.0151 27.9409 36.0153C33.3738 36.0172 38.8067 36.0167 44.2396 36.0167C44.2399 36.0131 44.2399 36.0098 44.2399 36.0067ZM41.5764 43.4105L41.5697 43.4039C41.6017 43.2242 41.6284 43.0437 41.668 42.8658C41.6868 42.7807 41.6589 42.7652 41.5802 42.767C41.395 42.7707 41.2097 42.7715 41.0244 42.7666C40.9484 42.7647 40.9223 42.7879 40.9112 42.8621C40.7987 43.6128 40.6772 44.3621 40.5328 45.1076C40.428 45.6484 40.3167 46.1878 40.2053 46.7272C40.1871 46.8152 40.2114 46.841 40.3042 46.8385C40.5162 46.8326 40.7287 46.8315 40.9407 46.8391C41.036 46.8426 41.0566 46.8066 41.0655 46.7244C41.1557 45.9013 41.2876 45.0843 41.5046 44.2833C41.5944 43.9523 41.7853 43.668 42.0737 43.4625C42.1811 43.386 42.3059 43.3092 42.4499 43.3113C42.6437 43.3142 42.8415 43.2869 43.029 43.3622C43.0733 43.38 43.0969 43.3665 43.1054 43.3184C43.1329 43.1644 43.1641 43.011 43.1924 42.8572C43.1982 42.8259 43.2076 42.7887 43.1643 42.7737C43.0025 42.7181 42.8388 42.6604 42.6639 42.6786C42.2762 42.7191 41.9764 42.9067 41.7449 43.2055C41.6909 43.2755 41.6472 43.3536 41.5764 43.4105ZM51.8332 43.3943C51.8284 43.3904 51.8233 43.3864 51.8185 43.3825C51.8502 43.2062 51.8808 43.0298 51.9141 42.8537C51.9263 42.7895 51.9054 42.7658 51.8363 42.767C51.6478 42.7703 51.4589 42.7717 51.2706 42.7664C51.1901 42.7641 51.1703 42.7954 51.1593 42.8662C51.0402 43.6388 50.916 44.4107 50.7649 45.1782C50.661 45.7059 50.5546 46.233 50.4474 46.7599C50.4369 46.8111 50.4373 46.8381 50.5038 46.8373C50.7498 46.8348 50.9955 46.8354 51.2414 46.8371C51.2936 46.8375 51.3159 46.8182 51.3134 46.7687C51.3027 46.5519 51.3497 46.3408 51.3859 46.1291C51.4918 45.5098 51.562 44.8836 51.7505 44.2796C51.8816 43.8593 52.1245 43.5252 52.5531 43.3412C52.5838 43.3281 52.6123 43.3105 52.6481 43.3123C52.8583 43.3236 53.0728 43.2782 53.2771 43.3604C53.3281 43.381 53.3526 43.3626 53.3566 43.3099C53.3687 43.1569 53.4039 43.0075 53.4391 42.8584C53.4531 42.7995 53.431 42.7803 53.3791 42.759C53.2233 42.6954 53.0625 42.6758 52.8955 42.6858C52.6303 42.7019 52.4026 42.8018 52.2076 42.9736C52.0652 43.0992 51.9473 43.2452 51.8332 43.3943ZM27.4518 43.433C27.4518 43.443 27.4518 43.453 27.4518 43.4629C27.0342 43.4524 26.6167 43.4399 26.1991 43.4332C26.1143 43.4318 26.0982 43.4048 26.1127 43.3295C26.2492 42.6252 26.3819 41.9202 26.5196 41.2163C26.5334 41.1462 26.5233 41.123 26.4466 41.1237C26.177 41.1267 25.9074 41.1269 25.6378 41.1235C25.5666 41.1226 25.547 41.1521 25.5371 41.2137C25.4793 41.5708 25.4153 41.9271 25.3575 42.2843C25.1779 43.3947 24.9872 44.503 24.7578 45.6049C24.6808 45.9753 24.6061 46.346 24.5321 46.7168C24.5084 46.8352 24.5115 46.8367 24.6361 46.8367C24.8923 46.8369 25.1484 46.8338 25.4044 46.8385C25.4827 46.8399 25.51 46.8125 25.5191 46.7413C25.5347 46.6186 25.5583 46.4967 25.5796 46.3746C25.7114 45.6133 25.8362 44.8509 25.9823 44.092C25.9968 44.0166 26.028 43.9922 26.1079 43.9924C26.927 43.9951 27.7459 43.9939 28.565 43.9941C28.6892 43.9941 28.6939 43.999 28.6714 44.1152C28.5877 44.5508 28.5027 44.9859 28.419 45.4214C28.3365 45.8505 28.2548 46.2795 28.1735 46.7088C28.1494 46.8362 28.1506 46.8365 28.2886 46.8365C28.5448 46.8365 28.8009 46.8348 29.0571 46.8377C29.1235 46.8385 29.1524 46.8193 29.1617 46.7526C29.1928 46.5333 29.2284 46.3144 29.2662 46.0958C29.5502 44.461 29.8431 42.8275 30.1764 41.2012C30.1903 41.1331 30.1683 41.1235 30.1084 41.1241C29.8657 41.1259 29.623 41.1247 29.3803 41.1247C29.1995 41.1247 29.1983 41.1245 29.1692 41.291C29.0513 41.9654 28.9321 42.6396 28.8197 43.3148C28.8051 43.4029 28.7804 43.4359 28.6842 43.435C28.2736 43.4303 27.8626 43.433 27.4518 43.433ZM55.8767 46.224C55.8514 46.4216 55.8314 46.5894 55.8073 46.7567C55.7988 46.8164 55.816 46.8385 55.8805 46.8377C56.0895 46.835 56.2984 46.8342 56.5073 46.8381C56.5775 46.8395 56.5937 46.8105 56.5927 46.7514C56.5914 46.6798 56.5916 46.6078 56.5989 46.5366C56.691 45.6249 56.8449 44.722 57.0158 43.8216C57.1873 42.9182 57.3511 42.0136 57.5475 41.1149C57.5651 41.0347 57.5479 41.0036 57.4563 41.0058C57.234 41.011 57.0115 41.0095 56.789 41.0063C56.7221 41.0054 56.6942 41.0253 56.6863 41.0918C56.6198 41.6453 56.5122 42.1928 56.4238 42.7429C56.4118 42.8171 56.3868 42.8265 56.3204 42.8038C56.0308 42.7052 55.7268 42.6713 55.425 42.6766C55.0404 42.6833 54.666 42.7541 54.3161 42.9329C53.945 43.1227 53.6652 43.3994 53.4662 43.7455C53.1904 44.2256 53.0199 44.7411 52.9869 45.2954C52.9663 45.6437 52.9786 45.9861 53.1295 46.3101C53.216 46.4961 53.3518 46.6432 53.5392 46.7401C53.9504 46.9524 54.3891 46.9674 54.8377 46.9029C55.131 46.8606 55.3971 46.7624 55.6091 46.5519C55.7029 46.4589 55.7689 46.3445 55.8767 46.224ZM33.0842 43.1389C33.103 43.0484 33.1198 42.9591 33.1404 42.8709C33.1576 42.7973 33.1402 42.7637 33.0526 42.7664C32.8775 42.7719 32.7021 42.7725 32.527 42.766C32.4388 42.7629 32.406 42.7889 32.3921 42.8758C32.2361 43.8409 32.0739 44.8053 31.8931 45.7665C31.7178 46.6988 31.5477 47.6321 31.3497 48.5602C31.3341 48.6332 31.3493 48.6588 31.4304 48.6573C31.646 48.653 31.8618 48.6559 32.0774 48.6559C32.2106 48.6559 32.2104 48.6557 32.224 48.5219C32.2297 48.4667 32.2343 48.4115 32.243 48.3568C32.3215 47.8676 32.3993 47.3783 32.4811 46.8896C32.5065 46.7372 32.5169 46.5816 32.5603 46.4294C32.605 46.4449 32.6133 46.4795 32.6289 46.5063C32.7745 46.7567 32.9966 46.8907 33.2885 46.9342C33.6402 46.9864 33.9796 46.9389 34.3139 46.8371C34.5546 46.764 34.7708 46.645 34.9578 46.4818C35.2995 46.184 35.5169 45.81 35.6637 45.3928C35.8781 44.7838 36.0191 44.1694 35.8318 43.5269C35.7565 43.2689 35.5998 43.0581 35.3741 42.9149C35.045 42.706 34.67 42.6549 34.2803 42.6854C33.8699 42.7177 33.4982 42.8421 33.1766 43.0959C33.1523 43.1157 33.1293 43.1421 33.0842 43.1389ZM49.0177 46.2298C49.0142 46.2615 49.0116 46.2934 49.0072 46.3251C48.9873 46.4672 48.9705 46.6094 48.9673 46.753C48.9659 46.8142 48.9863 46.8395 49.0541 46.8381C49.2393 46.8342 49.4248 46.8326 49.6099 46.8387C49.6914 46.8414 49.7138 46.8107 49.7152 46.7393C49.7187 46.583 49.7159 46.4255 49.7363 46.2711C49.8083 45.7252 49.9054 45.1831 50.002 44.6408C50.074 44.2377 50.1873 43.8402 50.1733 43.4244C50.1649 43.1738 50.0423 43.0004 49.8261 42.8828C49.4782 42.6936 49.0899 42.6833 48.7078 42.6784C48.2432 42.6725 47.7839 42.7715 47.3181 42.7678C47.2684 42.7674 47.2482 42.7874 47.2374 42.8339C47.198 43.0055 47.1565 43.1767 47.1106 43.3467C47.0922 43.415 47.1001 43.4348 47.1786 43.416C47.3547 43.3735 47.5321 43.334 47.7107 43.3019C48.1191 43.2287 48.5292 43.1734 48.9416 43.2712C49.1746 43.3266 49.3777 43.4643 49.3552 43.7523C49.3455 43.8767 49.3192 43.9967 49.3002 44.1188C49.2903 44.182 49.2594 44.2041 49.1926 44.2039C48.8356 44.2035 48.4785 44.214 48.1217 44.2066C47.9025 44.2019 47.6931 44.2324 47.4878 44.3009C47.3798 44.3369 47.2698 44.3698 47.1658 44.415C46.7348 44.603 46.4505 44.9243 46.32 45.3578C46.2278 45.6642 46.2219 45.9837 46.3123 46.2946C46.3613 46.4629 46.4626 46.6092 46.6139 46.7105C46.8821 46.8902 47.1881 46.9303 47.5072 46.9336C47.9435 46.9381 48.3399 46.8405 48.6785 46.5622C48.799 46.4625 48.8943 46.3406 49.0177 46.2298ZM38.522 44.6331C38.7442 44.6331 38.9667 44.6323 39.189 44.6333C39.4147 44.6343 39.6402 44.6361 39.8659 44.6402C39.9232 44.6411 39.9484 44.622 39.9616 44.5664C40.0362 44.2508 40.0894 43.9325 40.0682 43.6081C40.0413 43.1967 39.7858 42.9067 39.3674 42.7821C38.8973 42.642 38.4194 42.6502 37.9403 42.751C37.32 42.8815 36.8542 43.2066 36.568 43.759C36.2472 44.378 36.0992 45.0364 36.1528 45.7258C36.1789 46.0624 36.3125 46.368 36.5981 46.5953C36.8489 46.7951 37.1428 46.8753 37.4534 46.9109C38.1053 46.9854 38.7422 46.8817 39.3759 46.7473C39.4133 46.7393 39.4428 46.7276 39.4509 46.682C39.4825 46.5055 39.5178 46.3298 39.552 46.1539C39.563 46.0982 39.5625 46.0622 39.4849 46.0958C39.0159 46.2985 38.5254 46.3856 38.0107 46.3646C37.8489 46.358 37.7 46.3277 37.5509 46.2727C37.2055 46.1453 37.0593 45.8749 37.0216 45.5488C36.9903 45.2774 37.0162 45.0025 37.0698 44.7319C37.0815 44.6728 37.1096 44.6496 37.1689 44.6466C37.6195 44.6247 38.0707 44.6214 38.522 44.6331ZM45.7608 46.1158C45.7157 46.1089 45.6882 46.1312 45.658 46.1436C45.2392 46.3151 44.8045 46.4014 44.3487 46.3605C44.1203 46.34 43.9294 46.2425 43.7949 46.0612C43.6566 45.8747 43.6163 45.6574 43.6086 45.4328C43.5951 45.0344 43.6616 44.6472 43.7886 44.2698C43.8651 44.0428 43.966 43.8235 44.1167 43.6343C44.3768 43.3078 44.7538 43.2239 45.1514 43.2223C45.5025 43.2207 45.8484 43.2788 46.1801 43.3966C46.2363 43.4166 46.2529 43.3962 46.2608 43.3495C46.2899 43.1759 46.3192 43.0024 46.3485 42.8288C46.3572 42.7774 46.3396 42.7494 46.2814 42.7451C46.1807 42.7377 46.0806 42.724 45.9798 42.7157C45.4554 42.6731 44.9324 42.6486 44.4126 42.7662C43.9678 42.8668 43.6129 43.1043 43.3552 43.4551C42.9681 43.9824 42.777 44.5852 42.7426 45.2291C42.7248 45.5629 42.713 45.9011 42.8744 46.2161C43.0324 46.5243 43.2585 46.7557 43.6121 46.8481C44.2807 47.0226 44.934 46.9189 45.583 46.743C45.6131 46.7348 45.6402 46.7225 45.6491 46.6896C45.7007 46.5006 45.7373 46.3099 45.7608 46.1158ZM30.4608 46.8367C30.5787 46.8367 30.6966 46.8346 30.8143 46.8375C30.8733 46.8391 30.8988 46.8176 30.9043 46.7604C30.915 46.647 30.9274 46.5335 30.9456 46.4212C31.1389 45.225 31.3551 44.0327 31.6134 42.848C31.63 42.7717 31.6004 42.7664 31.5392 42.768C31.3272 42.7737 31.1152 42.778 30.9033 42.7807C30.7569 42.7827 30.7577 42.7813 30.7384 42.9179C30.6592 43.4823 30.5627 44.044 30.4618 44.6051C30.3327 45.3234 30.1914 46.0393 30.0348 46.7524C30.02 46.8199 30.0389 46.8395 30.1072 46.8375C30.2249 46.8342 30.343 46.8367 30.4608 46.8367ZM30.9348 41.6483C30.932 41.6956 30.9292 41.7312 30.9276 41.767C30.9227 41.8707 30.9905 41.986 31.0879 42.0239C31.3719 42.1345 31.7137 42.0423 31.8385 41.7326C31.8911 41.6023 31.8876 41.4722 31.8891 41.3393C31.8901 41.2435 31.8419 41.1713 31.7633 41.1194C31.6037 41.014 31.2681 41.049 31.1247 41.1844C30.9866 41.3147 30.928 41.4751 30.9348 41.6483Z" fill="#B2131B"/>
<path d="M27.453 43.4333C27.864 43.4333 28.2748 43.4306 28.6856 43.4353C28.7818 43.4364 28.8065 43.4032 28.8211 43.3151C28.9335 42.64 29.0527 41.9657 29.1706 41.2913C29.1997 41.1248 29.2009 41.125 29.3817 41.125C29.6244 41.125 29.8671 41.1262 30.1098 41.1244C30.1697 41.1241 30.1917 41.1336 30.1778 41.2015C29.8443 42.8278 29.5516 44.4613 29.2676 46.0961C29.2296 46.3145 29.1942 46.5334 29.1631 46.7529C29.1536 46.8196 29.1249 46.8388 29.0585 46.838C28.8025 46.8351 28.5462 46.837 28.29 46.8369C28.152 46.8369 28.1508 46.8365 28.1749 46.7091C28.2562 46.2798 28.3379 45.8508 28.4204 45.4217C28.5041 44.9862 28.5891 44.5511 28.6728 44.1155C28.6951 43.9993 28.6906 43.9944 28.5664 43.9944C27.7473 43.9942 26.9284 43.9954 26.1093 43.9927C26.0294 43.9925 25.9982 44.0169 25.9837 44.0923C25.8376 44.8512 25.7126 45.6136 25.581 46.3749C25.5599 46.497 25.5363 46.6189 25.5205 46.7416C25.5114 46.8126 25.4841 46.8402 25.4058 46.8388C25.1498 46.8341 24.8935 46.8372 24.6375 46.837C24.5129 46.8369 24.5098 46.8355 24.5335 46.7171C24.6075 46.3462 24.6822 45.9754 24.7592 45.6052C24.9886 44.5033 25.1793 43.395 25.3589 42.2847C25.4168 41.9276 25.4807 41.5713 25.5385 41.2141C25.5484 41.1524 25.5682 41.1231 25.6392 41.1239C25.9088 41.1272 26.1784 41.127 26.448 41.1241C26.5247 41.1233 26.5348 41.1464 26.5211 41.2166C26.3835 41.9205 26.2506 42.6255 26.1141 43.3298C26.0996 43.4051 26.1157 43.4321 26.2005 43.4335C26.6181 43.4402 27.0356 43.4527 27.4532 43.4632C27.453 43.4533 27.453 43.4433 27.453 43.4333Z" fill="white"/>
<path d="M55.8768 46.2244C55.769 46.3451 55.7031 46.4594 55.6094 46.5525C55.3975 46.7632 55.1313 46.8614 54.838 46.9035C54.3894 46.9681 53.9507 46.953 53.5396 46.7407C53.3521 46.6439 53.2164 46.4967 53.1298 46.3107C52.9789 45.9867 52.9666 45.6443 52.9872 45.296C53.0202 44.7418 53.1905 44.2262 53.4665 43.7461C53.6656 43.4 53.9451 43.1233 54.3164 42.9335C54.6663 42.7547 55.0405 42.6839 55.4254 42.6772C55.7271 42.672 56.0311 42.7058 56.3207 42.8044C56.3871 42.8271 56.4122 42.8175 56.4241 42.7436C56.5125 42.1934 56.6201 41.646 56.6866 41.0925C56.6947 41.026 56.7226 41.006 56.7894 41.007C57.0118 41.0101 57.2343 41.0117 57.4566 41.0064C57.5482 41.0042 57.5654 41.0353 57.5478 41.1156C57.3514 42.0142 57.1876 42.9189 57.0161 43.8222C56.8452 44.7226 56.6911 45.6255 56.5992 46.5372C56.5922 46.6085 56.5918 46.6805 56.593 46.7521C56.594 46.8113 56.5776 46.8401 56.5076 46.8387C56.2987 46.8348 56.0898 46.8356 55.8808 46.8383C55.8163 46.8391 55.7991 46.817 55.8076 46.7573C55.8315 46.5899 55.8515 46.422 55.8768 46.2244ZM53.8713 45.441C53.8628 45.55 53.8698 45.7063 53.9162 45.8576C53.9789 46.0624 54.0945 46.2236 54.3095 46.3099C54.8285 46.5181 55.536 46.2895 55.7931 45.71C55.8545 45.5717 55.8976 45.4283 55.9336 45.2829C56.0839 44.6782 56.1792 44.0632 56.2983 43.4526C56.3102 43.391 56.2857 43.3693 56.2291 43.3474C55.9278 43.2305 55.6147 43.2233 55.2963 43.2315C55.0939 43.2368 54.9121 43.292 54.7444 43.3914C54.5237 43.5221 54.3674 43.7138 54.2438 43.9306C53.9843 44.3855 53.8769 44.8771 53.8713 45.441Z" fill="white"/>
<path d="M33.0848 43.1391C33.1299 43.142 33.1529 43.1156 33.1776 43.0962C33.4992 42.8425 33.8709 42.7181 34.2813 42.6858C34.6711 42.6551 35.046 42.7063 35.3751 42.9153C35.6008 43.0585 35.7576 43.2692 35.8328 43.5273C36.0201 44.1698 35.8791 44.7843 35.6647 45.3932C35.5179 45.8103 35.3005 46.1844 34.9589 46.4822C34.7716 46.6454 34.5554 46.7643 34.3149 46.8375C33.9806 46.9392 33.6412 46.9868 33.2895 46.9345C32.9976 46.8911 32.7753 46.7569 32.6299 46.5066C32.6143 46.4798 32.606 46.4452 32.5613 46.4297C32.5179 46.582 32.5075 46.7375 32.4821 46.8899C32.4004 47.3787 32.3227 47.8678 32.244 48.3571C32.2353 48.4117 32.2307 48.4671 32.225 48.5222C32.2114 48.6561 32.2117 48.6563 32.0784 48.6563C31.8628 48.6564 31.647 48.6533 31.4314 48.6576C31.3503 48.6592 31.3351 48.6336 31.3507 48.5606C31.5487 47.6324 31.7188 46.6992 31.8941 45.7669C32.0749 44.8056 32.2371 43.8415 32.3931 42.8761C32.407 42.7893 32.4398 42.7632 32.528 42.7664C32.7029 42.7726 32.8785 42.7721 33.0536 42.7668C33.1412 42.764 33.1586 42.7979 33.1414 42.8712C33.1204 42.9595 33.1036 43.0485 33.0848 43.1391ZM35.0145 44.3437C35.0145 44.2592 35.0177 44.1745 35.0139 44.09C34.987 43.4862 34.6591 43.2549 34.1373 43.2221C33.7589 43.1982 33.424 43.3257 33.1418 43.5766C33.0969 43.6165 33.0708 43.6578 33.0609 43.7161C33.0342 43.8734 32.9966 44.0291 32.9717 44.1866C32.8961 44.6689 32.7426 45.1412 32.7345 45.6309C32.7278 46.0402 32.8979 46.2787 33.2688 46.3691C33.7455 46.4853 34.2799 46.3243 34.5592 45.8817C34.8573 45.4094 35.0086 44.8976 35.0145 44.3437Z" fill="white"/>
<path d="M49.0189 46.2302C48.8954 46.3409 48.8003 46.4628 48.6794 46.5622C48.3408 46.8404 47.9446 46.9383 47.5081 46.9336C47.189 46.9302 46.8829 46.8901 46.6148 46.7105C46.4635 46.6092 46.3621 46.4628 46.3132 46.2946C46.2228 45.9837 46.2289 45.6642 46.3209 45.3578C46.4513 44.924 46.7357 44.603 47.1667 44.4149C47.2707 44.3696 47.3807 44.3369 47.4887 44.3009C47.694 44.2324 47.9033 44.2019 48.1226 44.2066C48.4793 44.2142 48.8365 44.2034 49.1935 44.2038C49.2602 44.2038 49.2912 44.1819 49.3011 44.1187C49.3203 43.9966 49.3464 43.8767 49.3561 43.7523C49.3785 43.4643 49.1755 43.3265 48.9425 43.2712C48.5301 43.1733 48.1199 43.2287 47.7116 43.3019C47.533 43.334 47.3556 43.3735 47.1795 43.416C47.101 43.4349 47.0931 43.4152 47.1115 43.3467C47.1574 43.1767 47.1989 43.0055 47.2383 42.8339C47.249 42.7875 47.2693 42.7674 47.319 42.7678C47.7846 42.7715 48.2441 42.6725 48.7087 42.6784C49.0909 42.6832 49.4791 42.6936 49.8269 42.8828C50.0432 43.0004 50.1657 43.1737 50.1742 43.4244C50.1882 43.8401 50.0749 44.2377 50.0029 44.6407C49.906 45.1831 49.8091 45.7252 49.7371 46.2711C49.7167 46.4256 49.7195 46.5831 49.7161 46.7393C49.7145 46.8107 49.6922 46.8414 49.6107 46.8387C49.4257 46.8326 49.2402 46.8342 49.0549 46.8381C48.987 46.8394 48.9668 46.8144 48.9682 46.753C48.9714 46.6094 48.9882 46.4671 49.008 46.3251C49.0129 46.294 49.0155 46.2621 49.0189 46.2302ZM48.608 44.6789C48.3497 44.6828 48.0902 44.6597 47.8376 44.7405C47.5714 44.8256 47.3607 44.9714 47.2268 45.2152C47.1079 45.4319 47.0628 45.6593 47.0977 45.9029C47.1194 46.0533 47.1942 46.1781 47.3202 46.2574C47.4677 46.3501 47.6353 46.394 47.8186 46.3867C47.9765 46.3805 48.1254 46.3458 48.2696 46.2922C48.4884 46.2108 48.6719 46.0762 48.7946 45.8837C49.0044 45.5546 49.0958 45.1837 49.1654 44.8074C49.1872 44.6891 49.1793 44.6804 49.0523 44.6797C48.9043 44.6783 48.756 44.6791 48.608 44.6789Z" fill="white"/>
<path d="M38.5227 44.6333C38.0715 44.6215 37.6203 44.6248 37.1694 44.6466C37.1102 44.6495 37.0821 44.6728 37.0703 44.7319C37.0165 45.0025 36.9909 45.2773 37.0222 45.5487C37.0598 45.8749 37.2061 46.1453 37.5515 46.2726C37.7006 46.3276 37.8494 46.3579 38.0112 46.3646C38.526 46.3855 39.0162 46.2986 39.4854 46.0958C39.5631 46.0621 39.5635 46.0981 39.5526 46.1539C39.5184 46.3298 39.4828 46.5054 39.4515 46.6819C39.4434 46.7275 39.4136 46.7394 39.3764 46.7473C38.743 46.8817 38.1059 46.9854 37.454 46.9108C37.1434 46.8752 36.8493 46.795 36.5987 46.5952C36.3133 46.3677 36.1796 46.0623 36.1533 45.7258C36.0997 45.0363 36.2478 44.3781 36.5686 43.7589C36.8547 43.2064 37.3205 42.8812 37.9408 42.7509C38.42 42.6501 38.8979 42.6419 39.3679 42.782C39.7862 42.9066 40.0416 43.1968 40.0687 43.608C40.09 43.9326 40.0368 44.2508 39.9622 44.5663C39.949 44.6219 39.9239 44.6411 39.8665 44.6401C39.641 44.636 39.4153 44.6342 39.1895 44.6333C38.9673 44.6325 38.745 44.6333 38.5227 44.6333ZM38.2163 44.1733C38.2163 44.1745 38.2163 44.1754 38.2163 44.1766C38.5227 44.1766 38.8291 44.1741 39.1353 44.1784C39.2136 44.1795 39.2435 44.1533 39.2476 44.0811C39.2522 43.9999 39.2666 43.9193 39.2715 43.8381C39.2905 43.509 39.0917 43.2811 38.7553 43.2263C38.5666 43.1956 38.3797 43.2003 38.1926 43.2216C37.9609 43.2481 37.7576 43.3308 37.58 43.4885C37.3913 43.656 37.3114 43.8728 37.2253 44.0915C37.1984 44.1596 37.2174 44.175 37.2874 44.1745C37.5968 44.1719 37.9067 44.1733 38.2163 44.1733Z" fill="white"/>
<path d="M45.7623 46.116C45.7388 46.3101 45.702 46.5008 45.6508 46.6894C45.6419 46.7223 45.6148 46.7346 45.5847 46.7428C44.9357 46.9187 44.2826 47.0226 43.6137 46.8479C43.26 46.7556 43.0341 46.5241 42.8761 46.2159C42.7147 45.9009 42.7265 45.5627 42.7443 45.2289C42.7786 44.5852 42.9698 43.9822 43.3569 43.4549C43.6143 43.1041 43.9695 42.8666 44.4143 42.766C44.9342 42.6484 45.4571 42.6729 45.9815 42.7156C46.0822 42.7238 46.1824 42.7375 46.2831 42.7449C46.3413 42.7492 46.3589 42.7772 46.3502 42.8286C46.3209 43.0022 46.2916 43.1757 46.2624 43.3493C46.2546 43.3958 46.238 43.4164 46.1817 43.3964C45.8501 43.2786 45.5042 43.2207 45.1531 43.2221C44.7555 43.2239 44.3785 43.3078 44.1184 43.6341C43.9677 43.8233 43.8668 44.0427 43.7903 44.2696C43.6633 44.647 43.5965 45.0342 43.6103 45.4326C43.618 45.6572 43.6582 45.8745 43.7966 46.061C43.9311 46.2424 44.122 46.34 44.3503 46.3603C44.8062 46.4012 45.2407 46.3149 45.6597 46.1434C45.6897 46.1314 45.7172 46.1091 45.7623 46.116Z" fill="white"/>
<path d="M51.8331 43.3947C51.9472 43.2458 52.0651 43.0999 52.2071 42.9747C52.402 42.8031 52.6296 42.7029 52.8949 42.6868C53.0618 42.6769 53.2228 42.6964 53.3785 42.76C53.4305 42.7813 53.4525 42.8005 53.4386 42.8594C53.4032 43.0085 53.3682 43.158 53.3561 43.311C53.3518 43.3636 53.3275 43.382 53.2766 43.3615C53.0723 43.2793 52.8575 43.3247 52.6476 43.3133C52.612 43.3114 52.5833 43.329 52.5525 43.3423C52.1239 43.5262 51.881 43.8604 51.75 44.2806C51.5617 44.8844 51.4915 45.5107 51.3853 46.1301C51.3491 46.3416 51.3022 46.5529 51.3129 46.7697C51.3153 46.819 51.2931 46.8384 51.2409 46.8382C50.995 46.8366 50.7492 46.836 50.5033 46.8384C50.4367 46.839 50.4365 46.8122 50.4469 46.7609C50.5541 46.234 50.6606 45.7067 50.7644 45.1792C50.9155 44.4117 51.0397 43.6399 51.1588 42.8672C51.1697 42.7962 51.1897 42.7651 51.27 42.7675C51.4585 42.7729 51.6472 42.7714 51.8357 42.768C51.9049 42.7669 51.9257 42.7903 51.9136 42.8547C51.8802 43.0308 51.8497 43.2073 51.8179 43.3836C51.8173 43.3916 51.8169 43.3994 51.8163 43.4074C51.8222 43.4025 51.8276 43.3986 51.8331 43.3947Z" fill="white"/>
<path d="M41.5769 43.4106C41.6477 43.3537 41.6913 43.2756 41.7453 43.206C41.9769 42.9072 42.2767 42.7196 42.6644 42.6791C42.8393 42.6609 43.0028 42.7184 43.1648 42.7742C43.208 42.789 43.1987 42.8262 43.1929 42.8577C43.1644 43.0115 43.1334 43.1649 43.1059 43.3189C43.0974 43.367 43.0738 43.3805 43.0295 43.3627C42.842 43.2874 42.6442 43.3146 42.4504 43.3118C42.3066 43.3097 42.1816 43.3866 42.0742 43.4631C41.7858 43.6685 41.5949 43.9526 41.5051 44.2838C41.2878 45.085 41.156 45.9018 41.066 46.7249C41.0571 46.8071 41.0364 46.8429 40.9412 46.8396C40.7292 46.832 40.5167 46.8331 40.3047 46.839C40.2121 46.8416 40.1876 46.8157 40.2058 46.7277C40.3174 46.1883 40.4285 45.6487 40.5332 45.1081C40.6777 44.3625 40.7992 43.6131 40.9117 42.8626C40.9228 42.7885 40.9489 42.7652 41.0249 42.7671C41.21 42.7718 41.3954 42.7712 41.5807 42.7675C41.6594 42.766 41.6875 42.7814 41.6685 42.8663C41.6291 43.0444 41.6024 43.225 41.5704 43.4046C41.5623 43.4112 41.5579 43.4181 41.5682 43.4265C41.5712 43.4208 41.574 43.4157 41.5769 43.4106Z" fill="white"/>
<path d="M30.4619 46.837C30.344 46.837 30.2261 46.8346 30.1083 46.8379C30.0402 46.8399 30.0212 46.8203 30.0359 46.7528C30.1925 46.0397 30.3339 45.3236 30.4629 44.6056C30.5638 44.0446 30.6603 43.4827 30.7396 42.9183C30.7588 42.7815 30.758 42.7829 30.9044 42.7811C31.1164 42.7784 31.3283 42.7741 31.5403 42.7684C31.6016 42.7668 31.6311 42.7721 31.6145 42.8484C31.3563 44.0333 31.14 45.2254 30.9467 46.4216C30.9285 46.5341 30.9162 46.6476 30.9054 46.7609C30.9 46.8182 30.8747 46.8395 30.8154 46.8379C30.6977 46.8348 30.5798 46.837 30.4619 46.837Z" fill="white"/>
<path d="M30.9348 41.6484C30.9279 41.4753 30.9868 41.3148 31.1247 41.1843C31.2679 41.0489 31.6034 41.0139 31.7632 41.1194C31.8419 41.1714 31.89 41.2434 31.889 41.3393C31.8876 41.4719 31.8908 41.6022 31.8384 41.7325C31.7136 42.0422 31.3718 42.1344 31.0879 42.0239C30.9906 41.9859 30.9226 41.8707 30.9275 41.767C30.9291 41.7314 30.9317 41.6958 30.9348 41.6484Z" fill="white"/>
<path d="M53.8722 45.4407C53.8777 44.8768 53.9853 44.3852 54.2446 43.9301C54.3682 43.7133 54.5243 43.5216 54.7452 43.3909C54.9128 43.2915 55.0949 43.2363 55.2971 43.231C55.6155 43.2228 55.9286 43.2298 56.2299 43.3468C56.2864 43.3687 56.311 43.3905 56.2991 43.4521C56.18 44.0627 56.0847 44.6777 55.9344 45.2824C55.8982 45.4278 55.8551 45.5712 55.7939 45.7095C55.5368 46.2892 54.8293 46.5175 54.3103 46.3094C54.0953 46.2231 53.9798 46.0619 53.9169 45.857C53.8708 45.7058 53.8638 45.5497 53.8722 45.4407Z" fill="#B2131B"/>
<path d="M35.0141 44.3437C35.0084 44.8974 34.8569 45.4092 34.5588 45.8817C34.2795 46.3242 33.7451 46.4853 33.2684 46.3691C32.8975 46.2787 32.7274 46.0402 32.7341 45.6309C32.7422 45.1411 32.8957 44.6688 32.9713 44.1866C32.996 44.0291 33.0336 43.8733 33.0605 43.716C33.0704 43.6577 33.0965 43.6164 33.1414 43.5765C33.4236 43.3257 33.7585 43.1981 34.1369 43.222C34.6587 43.2549 34.9868 43.4861 35.0135 44.0899C35.0173 44.1744 35.0141 44.2592 35.0141 44.3437Z" fill="#B2131B"/>
<path d="M48.6068 44.6787C48.7549 44.6789 48.9031 44.6781 49.0512 44.6791C49.178 44.6799 49.1861 44.6887 49.1642 44.8069C49.0947 45.1831 49.0032 45.5541 48.7935 45.8831C48.6707 46.0757 48.4873 46.2105 48.2685 46.2917C48.1242 46.3453 47.9754 46.3799 47.8174 46.3862C47.6342 46.3934 47.4665 46.3496 47.3191 46.2568C47.1931 46.1776 47.1182 46.0528 47.0966 45.9023C47.0614 45.6587 47.1065 45.4314 47.2256 45.2146C47.3595 44.9708 47.5703 44.8251 47.8364 44.7399C48.0891 44.6593 48.3485 44.6826 48.6068 44.6787Z" fill="#B2131B"/>
<path d="M38.2163 44.1734C37.9067 44.1734 37.5968 44.1721 37.2872 44.1744C37.2172 44.175 37.1982 44.1595 37.2251 44.0914C37.3112 43.8727 37.3911 43.6559 37.5798 43.4884C37.7574 43.3309 37.9607 43.248 38.1924 43.2216C38.3795 43.2002 38.5664 43.1956 38.7551 43.2263C39.0915 43.2812 39.2903 43.5092 39.2713 43.8381C39.2666 43.9193 39.252 43.9999 39.2474 44.0811C39.2434 44.1533 39.2134 44.1795 39.1351 44.1783C38.8289 44.174 38.5225 44.1766 38.2161 44.1766C38.2163 44.1756 38.2163 44.1744 38.2163 44.1734Z" fill="#B2131B"/>
<path d="M51.836 43.3954C51.83 43.3996 51.8239 43.404 51.8179 43.4082C51.8185 43.3996 51.819 43.3913 51.8197 43.3827C51.8253 43.3869 51.8307 43.391 51.836 43.3954Z" fill="white"/>
<path d="M41.5796 43.4113C41.5764 43.4168 41.573 43.4223 41.5698 43.4278C41.5581 43.4187 41.5632 43.4113 41.5723 43.4041C41.572 43.4041 41.5796 43.4113 41.5796 43.4113Z" fill="white"/>
<defs>
<linearGradient id="paint0_linear" x1="7.05177e-07" y1="-9" x2="293.277" y2="182.637" gradientUnits="userSpaceOnUse">
<stop stop-color="#F04850"/>
<stop offset="0.609375" stop-color="#E71D27"/>
</linearGradient>
</defs>
</svg>
