<svg width="295" height="174" viewBox="0 0 295 174" fill="none" xmlns="http://www.w3.org/2000/svg">
<rect width="295" height="174" rx="20" fill="url(#paint0_linear)"/>
<path d="M48.3681 32.0023C48.8022 32.0023 49.2362 32.0023 49.6703 32.0023C49.6851 32.0321 49.7128 32.0214 49.7362 32.0236C49.9937 32.0469 50.2532 32.0618 50.5107 32.0936C51.9214 32.2699 53.2618 32.6754 54.5214 33.3357C56.9065 34.5842 58.6917 36.4186 59.847 38.8455C60.9449 41.1534 61.2513 43.5782 60.7981 46.0899C60.3279 48.6824 59.1172 50.8842 57.1874 52.6783C55.1555 54.568 52.7426 55.6232 49.9703 55.8546C49.8703 55.8631 49.766 55.8483 49.6703 55.8907C49.2298 55.8907 48.7873 55.8907 48.3468 55.8907C48.3298 55.8546 48.2979 55.8716 48.2724 55.8695C47.8319 55.8398 47.3936 55.7909 46.9596 55.7145C45.0574 55.379 43.334 54.6295 41.7935 53.466C41.5254 53.2622 41.2573 53.0562 41.019 52.8163C41.0233 52.776 41.0531 52.7547 41.0786 52.7314C41.1659 52.6486 41.2573 52.57 41.3446 52.4851C41.7063 52.1241 42.0488 51.7441 42.3659 51.3428C43.2127 50.2748 43.8553 49.0964 44.3 47.8097C44.6617 46.7609 44.8702 45.6801 44.9234 44.5739C44.9553 43.8966 44.9446 43.2193 44.8617 42.5441C44.7851 41.9305 44.668 41.3275 44.5021 40.7309C44.2319 39.7606 43.8425 38.8434 43.3382 37.9707C42.9893 37.3677 42.5914 36.7966 42.1382 36.2658C41.8488 35.926 41.5552 35.5885 41.2169 35.2912C41.1446 35.2275 41.0595 35.1681 41.019 35.0725C41.0382 35.0513 41.0552 35.03 41.0765 35.0109C41.8552 34.323 42.7063 33.7412 43.634 33.2741C45.034 32.5714 46.5149 32.1573 48.0787 32.0342C48.1766 32.0299 48.2766 32.0469 48.3681 32.0023Z" fill="#F9A000"/>
<path d="M33.6104 55.8884C33.1764 55.8884 32.7423 55.8884 32.3083 55.8884C32.2934 55.8587 32.2657 55.8693 32.2423 55.8672C31.5529 55.8269 30.87 55.7334 30.1997 55.5657C27.1252 54.8056 24.7039 53.107 22.9507 50.4763C21.8953 48.8924 21.2783 47.1407 21.0719 45.2468C20.9613 44.2362 20.9783 43.2276 21.123 42.2233C21.3187 40.8709 21.7336 39.5884 22.3762 38.3824C23.3379 36.5692 24.6741 35.0957 26.389 33.9661C28.1018 32.8387 29.9848 32.1975 32.0317 32.0361C32.1317 32.0276 32.2359 32.0425 32.3317 32C32.7594 32 33.1849 32 33.6126 32C33.6275 32.0297 33.6551 32.0191 33.6785 32.0212C33.9658 32.0382 34.253 32.0658 34.5381 32.1019C35.9658 32.2867 37.3148 32.7177 38.585 33.3907C39.4552 33.8515 40.2595 34.4099 40.9872 35.0744C40.9744 35.1084 40.9467 35.1318 40.9212 35.1573C40.5084 35.5288 40.1318 35.9344 39.7786 36.3611C38.8722 37.4567 38.185 38.6754 37.719 40.0173C37.2233 41.4441 37.002 42.9113 37.0701 44.423C37.0956 44.9729 37.1488 45.5186 37.2445 46.06C37.4956 47.4762 37.9935 48.8032 38.7275 50.0389C39.3254 51.0432 40.0531 51.9435 40.9191 52.7312C40.9446 52.7546 40.9723 52.7779 40.985 52.814C40.1871 53.5423 39.302 54.1431 38.3382 54.6251C36.9509 55.3194 35.4828 55.7292 33.9338 55.8523C33.8253 55.8608 33.7147 55.846 33.6104 55.8884Z" fill="#EE0005"/>
<path d="M41.0188 52.8159C41.0061 52.8159 40.9954 52.8138 40.9827 52.8138C40.9699 52.7777 40.9422 52.7565 40.9167 52.731C40.0486 51.9454 39.3231 51.0431 38.7252 50.0388C37.989 48.803 37.4932 47.476 37.2422 46.0598C37.1464 45.5184 37.0932 44.9727 37.0677 44.4228C36.9996 42.9132 37.2209 41.4439 37.7167 40.0171C38.1826 38.6753 38.8699 37.4565 39.7763 36.3609C40.1295 35.9342 40.5061 35.5265 40.9188 35.1571C40.9444 35.1337 40.972 35.1104 40.9848 35.0743C40.9976 35.0743 41.0082 35.0721 41.0188 35.0721C41.0593 35.1677 41.1444 35.225 41.2167 35.2908C41.555 35.5881 41.8465 35.9257 42.138 36.2654C42.5912 36.7962 42.987 37.3674 43.338 37.9703C43.8423 38.8409 44.2317 39.7602 44.5019 40.7305C44.6678 41.325 44.7849 41.9302 44.8615 42.5438C44.9444 43.2168 44.9572 43.8963 44.9232 44.5736C44.87 45.6798 44.6615 46.7605 44.2997 47.8094C43.8551 49.0961 43.2125 50.2744 42.3657 51.3424C42.0486 51.7437 41.7061 52.1217 41.3444 52.4847C41.2593 52.5697 41.1678 52.6482 41.0784 52.731C41.055 52.7544 41.0231 52.7756 41.0188 52.8159Z" fill="#FF5C00"/>
<defs>
<linearGradient id="paint0_linear" x1="7.05177e-07" y1="-9" x2="293.277" y2="182.637" gradientUnits="userSpaceOnUse">
<stop stop-color="#636363"/>
<stop offset="0.609375" stop-color="#1F1F1F"/>
</linearGradient>
</defs>
</svg>
