<svg width="295" height="174" viewBox="0 0 295 174" fill="none" xmlns="http://www.w3.org/2000/svg">
<rect width="295" height="174" rx="20" fill="url(#paint0_linear)"/>
<g clip-path="url(#clip0)">
<path d="M37.0163 38.0477L34.9834 49.9773H38.2346L40.2692 38.0477H37.0163Z" fill="white"/>
<path d="M32.2573 38.0611L29.0729 46.1968L28.7334 44.9684C28.1054 43.4882 26.3226 41.3626 24.2295 40.0229L27.1412 49.9715L30.5815 49.9656L35.7017 38.0586L32.2573 38.0611Z" fill="white"/>
<path d="M27.4991 38.9149C27.3102 38.1882 26.7624 37.9716 26.0826 37.9457H21.0418L21 38.1832C24.9227 39.1348 27.5184 41.4278 28.5954 44.1848L27.4991 38.9149Z" fill="white"/>
<path d="M46.8585 40.3348C47.9222 40.3181 48.6932 40.5506 49.2919 40.7914L49.5854 40.9294L50.0253 38.3438C49.3814 38.1021 48.3721 37.8429 47.1127 37.8429C43.8999 37.8429 41.6354 39.461 41.6179 41.7798C41.597 43.4933 43.231 44.4499 44.4652 45.021C45.7321 45.6064 46.1569 45.9785 46.1511 46.5012C46.141 47.2998 45.1409 47.666 44.2068 47.666C42.9048 47.666 42.2133 47.4862 41.1454 47.0414L40.7265 46.8507L40.269 49.5208C41.03 49.8544 42.434 50.1413 43.8916 50.1563C47.3092 50.1563 49.5302 48.5574 49.5537 46.0797C49.5679 44.7242 48.7007 43.6898 46.8217 42.841C45.6844 42.2874 44.9887 41.9195 44.9954 41.3609C44.9954 40.865 45.5858 40.3348 46.8585 40.3348Z" fill="white"/>
<path d="M58.3691 38.0611H55.8571C55.0769 38.0611 54.4965 38.2735 54.1537 39.0512L49.3262 49.984H52.7405C52.7405 49.984 53.2974 48.5139 53.4237 48.192C53.7975 48.192 57.1148 48.197 57.5872 48.197C57.6842 48.6135 57.9836 49.984 57.9836 49.984H60.9999L58.3691 38.0611ZM54.3594 45.7502C54.627 45.0653 55.6547 42.4162 55.6547 42.4162C55.6372 42.4488 55.9198 41.7263 56.0879 41.2772L56.307 42.3058C56.307 42.3058 56.93 45.154 57.0604 45.7502H54.3594Z" fill="white"/>
</g>
<defs>
<linearGradient id="paint0_linear" x1="7.05177e-07" y1="-9" x2="293.277" y2="182.637" gradientUnits="userSpaceOnUse">
<stop stop-color="#6887F4"/>
<stop offset="0.609375" stop-color="#1A1C73"/>
</linearGradient>
<clipPath id="clip0">
<rect width="40" height="40" fill="white" transform="translate(21 24)"/>
</clipPath>
</defs>
</svg>
